# xmcd
#
# Track frame offsets: 
#        150
#        22502
#        42012
#        59162
#        82145
#        103672
#        124292
#        141242
#        165122
#
# Disc length: 2468 seconds
#
# Revision: 2
# Processed by: cddbd v1.5.2PL0 Copyright (c) Steve Scherf et al.
# Submitted via: ExactAudioCopy v0.99pb4
#
DISCID=7009a209
DTITLE=L.J. Reynolds - L.J. Reynolds
DYEAR=1991
DGENRE=Soul
TTITLE0=Through The Storm
TTITLE1=I Love The Lord
TTITLE2=Miracle Of Love
TTITLE3=Jesus Is My Kind Of People
TTITLE4=Wind Beneath My Wings
TTITLE5=Ain't No Mountain High enough
TTITLE6=Amazing Grace
TTITLE7=How great Thou Art
TTITLE8=After the tears
EXTD=
EXTT0=
EXTT1=
EXTT2=
EXTT3=
EXTT4=
EXTT5=
EXTT6=
EXTT7=
EXTT8=
PLAYORDER=
